Coordinates
version=1
nRows=5
nColumns=42
inDegrees=yes

Units are S.I. units (second, meters, Newtons, ...)
If the header above contains a line with 'inDegrees', this indicates whether rotational values are in degrees (yes) or radians (no).

endheader
time	pelvis_tilt	pelvis_list	pelvis_rotation	pelvis_tx	pelvis_ty	pelvis_tz	hip_flexion_r	hip_adduction_r	hip_rotation_r	knee_angle_r	knee_adduction_r	knee_angle_r_beta	ankle_angle_r	subtalar_angle_r	mtp_angle_r	hip_flexion_l	hip_adduction_l	hip_rotation_l	knee_angle_l	knee_adduction_l	knee_angle_l_beta	ankle_angle_l	subtalar_angle_l	mtp_angle_l	lumbar_extension	lumbar_bending	lumbar_rotation	arm_flex_r	arm_add_r	arm_rot_r	elbow_flex_r	pro_sup_r	wrist_flex_r	wrist_dev_r	arm_flex_l	arm_add_l	arm_rot_l	elbow_flex_l	pro_sup_l	wrist_flex_l	wrist_dev_l
      0.42000000	      9.90978294	      0.33100928	      0.13232561	     -0.40810356	      0.84283107	     -0.29775449	     -9.62925248	      0.93414014	    -11.89199880	     11.63145360	      4.18427457	      0.20300716	     16.53623338	      5.46098358	     -7.83024089	     11.76180051	     -5.81102048	     -7.53794030	     60.77527616	     -0.47440048	      1.06072867	     10.32364190	    -12.19716142	     -7.83024089	    -21.10729318	     -1.19177047	      4.45955458	      1.10155342	    -13.80898297	    -10.49674209	     33.87887811	     90.00000001	      0.00000000	      0.00000000	     -0.16130210	     -8.94033177	    -22.26667373	     36.20131265	     90.00000001	      0.00000000	      0.00000000
      0.43000000	      9.89325541	      0.82790811	     -0.40266600	     -0.39370179	      0.84359309	     -0.29594869	    -11.48269008	      0.49977925	    -11.42339801	     10.10939612	      4.33266232	      0.17644225	     16.66005831	      5.67324305	     -7.81210555	     12.99354480	     -4.92681302	     -8.13561179	     57.88182314	     -0.22361547	      1.01022839	     10.59750823	    -12.34701085	     -7.81210555	    -21.05458050	     -2.06215454	      5.38113501	      1.20124646	    -14.04300453	     -9.94132453	     34.41563370	     90.00000001	      0.00000000	      0.00000000	     -0.71469696	     -9.06399607	    -23.55516900	     35.38268541	     90.00000001	      0.00000000	      0.00000000
      0.44000000	      9.83023633	      1.22520939	     -0.97004987	     -0.37924970	      0.84380326	     -0.29424319	    -13.22302236	      0.10780025	    -11.13769667	      8.69711129	      4.48381158	      0.15179323	     16.84204415	      6.13343459	     -7.79811581	     14.10783822	     -4.18799339	     -8.83031273	     54.64998749	      0.05518647	      0.95382222	     10.75158107	    -12.71282160	     -7.79811581	    -20.92467883	     -2.80687470	      6.34349521	      1.30214407	    -14.35363055	     -9.38607116	     34.94924415	     90.00000001	      0.00000000	      0.00000000	     -1.30583876	     -9.17536701	    -24.89907825	     34.59435004	     90.00000001	      0.00000000	      0.00000000
      0.45000000	      9.81535969	      1.54844443	     -1.53680093	     -0.36470967	      0.84362575	     -0.29260563	    -14.97131130	     -0.25298816	    -11.04507105	      7.38474310	      4.66154909	      0.12888808	     16.96953338	      6.59451074	     -7.78441149	     14.96220291	     -3.54879859	     -9.63894020	     51.03171370	      0.31816588	      0.89067143	     10.74525417	    -13.24336344	     -7.78441149	    -20.83351506	     -3.45074109	      7.29256312	      1.42382104	    -14.71380033	     -8.73762472	     35.48754762	     90.00000001	      0.00000000	      0.00000000	     -1.91913357	     -9.25297273	    -26.52431592	     33.91399673	     90.00000001	      0.00000000	      0.00000000
      0.46000000	      9.24643665	      1.40411044	     -1.93264316	     -0.35052990	      0.84213402	     -0.29073141	    -15.78485581	      0.13227474	    -11.45434599	      6.63385271	      4.36666445	      0.11578257	     17.05105388	      7.00883724	     -7.77881759	     16.58725572	     -3.55758356	    -10.46255162	     47.65044333	      0.47647203	      0.83165713	     11.11657108	    -13.33611320	     -7.77881759	    -20.14590159	     -3.55794904	      8.29028043	      1.56357339	    -15.03499811	     -8.48527925	     35.88077422	     90.00000001	      0.00000000	      0.00000000	     -2.75043035	     -9.49270934	    -27.18720599	     33.49540648	     90.00000001	      0.00000000	      0.00000000
